<svg xmlns="http://www.w3.org/2000/svg" width="991" height="147" viewBox="0 0 991 147" preserveAspectRatio="none" style="height: 110px;"><path fill="currentColor" fill-rule="evenodd" d="M205,247 C228.121196,247 247.751469,261.946416 254.755963,282.704391 C263.948958,274.786649 275.915488,270 289,270 C302.834038,270 315.418342,275.350747 324.796242,284.09557 C331.37854,262.617503 351.365438,247 375,247 C394.832927,247 412.097272,257.997402 421.027613,274.226781 C430.516096,264.814403 443.579035,259 458,259 C474.587875,259 489.378945,266.69304 499,278.705912 C508.621055,266.69304 523.412125,259 540,259 C556.148693,259 570.594465,266.291069 580.225006,277.760897 C587.212919,256.973545 606.85783,242 630,242 C645.000508,242 658.531645,248.291127 668.09888,258.378849 C677.727841,247.129408 692.031339,240 708,240 C728.808512,240 746.78953,252.10594 755.284285,269.659052 C764.095382,262.969821 775.08409,259 787,259 C799.23795,259 810.497903,263.187297 819.425306,270.207336 C828.854618,256.208224 844.851961,247 863,247 C884.772129,247 903.448824,260.253124 911.402739,279.132025 C919.829378,273.370012 930.021135,270 941,270 C952.281172,270 962.731293,273.558156 971.289317,279.613423 C980.883837,267.081852 995.99811,259 1013,259 C1034.93644,259 1053.73055,272.453918 1061.58099,291.560413 C1071.13022,278.490494 1086.57358,270 1104,270 C1120.31757,270 1134.89641,277.444359 1144.52556,289.122101 C1149.3426,265.09777 1170.55782,247 1196,247 L1196,387 L205,387 L205,247 Z" transform="translate(-205 -240)"></path></svg>